<svg version="1" xmlns="http://www.w3.org/2000/svg" width="1066.667" height="1066.667" viewBox="0 0 800.000000 800.000000"><path d="M368 56.1c-5.2.5-16.3 2-24.6 3.4C188.2 85.3 70.1 212.9 56 370c-1.3 14.8-1.3 45.2 0 60 4.1 45.2 17.5 90.7 38.7 131 6.7 12.8 20.4 34.9 25.1 40.8l2.7 3.3 19.6-6.5c114.6-38 216.1-101.5 294-183.7 34.9-36.8 59.8-67.7 83.4-103.4 32.6-49.3 56.8-99.7 82-171.3 5.6-15.7 5.7-16.3 3.9-17.8-4.5-3.5-27.6-18.5-34.9-22.6C527.4 75.5 478.8 60.4 430 56c-13.5-1.2-48.4-1.1-62 .1z"/><path d="M691.4 217c5.8 24.3 8.6 46 8.6 66.9-.1 67.1-23.2 122.4-71.4 170.7-33.9 33.8-68.1 53.6-127.8 74-43.2 14.7-83.3 24.7-197.8 49.4-38 8.2-69 15.6-98.3 23.4-26.8 7.2-67.5 19.1-68.4 20-1.7 1.7 26.4 30.4 43.3 44.2 53.8 43.9 112.1 68.7 182.4 77.6 14 1.7 62 1.7 76 0 81.1-10.3 150.5-43.7 206-99.2 58.3-58.2 92.8-133.1 100.1-217 1.5-16.9.7-53.1-1.6-70-4.6-34.7-14.1-68.4-28.1-99.4-8-17.8-24.5-46.9-23-40.6z"/></svg>